<svg width="18" height="16" viewBox="0 0 18 16" fill="none" xmlns="http://www.w3.org/2000/svg">
<path fill-rule="evenodd" clip-rule="evenodd" d="M10.5282 0C10.9923 0 11.4394 0.164667 11.7804 0.461211L12.9696 1.74531C13.268 2.00479 13.6476 2.16329 14.0487 2.19887L14.2218 2.20652H14.7692C16.5535 2.20652 18 3.31913 18 5V12.9565C18 14.6374 16.5535 16 14.7692 16H3.23077C1.44646 16 0 14.6374 0 12.9565V5C0 3.31913 1.44646 2.20652 3.23077 2.20652H3.77818C4.24229 2.20652 4.68937 2.04185 5.03039 1.74531L6.21961 0.461211C6.56063 0.164667 7.00771 0 7.47182 0H10.5282ZM5.34649 5.55945C5.21687 5.46897 5.04381 5.4844 4.93252 5.58781L4.88891 5.63746L3.06009 8.19935C3.02099 8.25413 3 8.31953 3 8.38658C3 8.54347 3.11255 8.67437 3.26216 8.70464L3.32833 8.71124H4.41841L4.42175 8.89077C4.51722 11.4523 6.64741 13.5 9.26126 13.5C9.66925 13.5 10 13.1729 10 12.7695C10 12.3661 9.66925 12.039 9.26126 12.039C7.45894 12.039 5.98753 10.6381 5.90001 8.87733L5.89589 8.71124H6.98597C7.05377 8.71124 7.11991 8.69048 7.17531 8.65182C7.30493 8.56134 7.34818 8.39493 7.28691 8.25661L7.2542 8.19935L5.42538 5.63746C5.40378 5.6072 5.37709 5.58081 5.34649 5.55945ZM8.73874 4C8.33075 4 8 4.32705 8 4.73049C8 5.13393 8.33075 5.46098 8.73874 5.46098C10.5411 5.46098 12.0125 6.86195 12.1 8.62267L12.1041 8.78876H11.014C10.9462 8.78876 10.8801 8.80952 10.8247 8.84818C10.6951 8.93866 10.6518 9.10507 10.7131 9.24339L10.7458 9.30065L12.5746 11.8625C12.5962 11.8928 12.6229 11.9192 12.6535 11.9405C12.7831 12.031 12.9562 12.0156 13.0675 11.9122L13.1111 11.8625L14.9399 9.30065C14.979 9.24587 15 9.18047 15 9.11342C15 8.95653 14.8875 8.82563 14.7378 8.79536L14.6717 8.78876H13.5816L13.5783 8.60923C13.4828 6.04765 11.3526 4 8.73874 4Z" fill="white"/>
</svg>
