<svg width="24" height="21" viewBox="0 0 24 21" fill="none" xmlns="http://www.w3.org/2000/svg">
<path fill-rule="evenodd" clip-rule="evenodd" d="M13.904 0.9375C14.4822 0.9375 15.0391 1.15527 15.464 1.54745L16.9456 2.91505C17.3173 3.2582 17.7902 3.46783 18.29 3.51488L18.5056 3.525H19.1876C21.4105 3.525 23.2126 5.32705 23.2126 7.55V16.75C23.2126 18.9729 21.4105 20.775 19.1876 20.775H4.8126C2.58965 20.775 0.787598 18.9729 0.787598 16.75V7.55C0.787598 5.32705 2.58965 3.525 4.8126 3.525H5.49458C6.07278 3.525 6.62977 3.30723 7.05463 2.91505L8.53619 1.54745C8.96105 1.15527 9.51804 0.9375 10.0962 0.9375H13.904ZM12 6.11252C8.82436 6.11252 6.25 8.68688 6.25 11.8625C6.25 15.0382 8.82436 17.6125 12 17.6125C15.1756 17.6125 17.75 15.0382 17.75 11.8625C17.75 8.68688 15.1756 6.11252 12 6.11252ZM12 7.83756C14.223 7.83756 16.025 9.63961 16.025 11.8626C16.025 14.0855 14.223 15.8876 12 15.8876C9.77709 15.8876 7.97504 14.0855 7.97504 11.8626C7.97504 9.63961 9.77709 7.83756 12 7.83756Z" fill="black"/>
</svg>
