<svg width="18" height="18" viewBox="0 0 18 18" fill="none" xmlns="http://www.w3.org/2000/svg">
<path fill-rule="evenodd" clip-rule="evenodd" d="M9 0C13.9706 0 18 3.8556 18 8.61173C18 13.3679 13.9706 17.2235 9 17.2235C8.30783 17.2235 7.6285 17.1491 6.96202 17.0005L6.36485 16.8545C5.64614 16.7021 4.89851 16.7639 4.21516 17.0319L3.98988 17.1288L3.60242 17.3066C2.16645 17.9495 1.29756 18.1453 0.995753 17.8942C0.720171 17.6649 0.791275 17.0782 1.20906 16.1341C1.62955 15.184 1.63456 14.1055 1.22994 13.1556L1.13696 12.9541L0.990426 12.6506C0.330142 11.239 0 9.89274 0 8.61173C0 3.8556 4.02944 0 9 0Z" fill="white"/>
</svg>
