<svg width="22" height="21" viewBox="0 0 22 21" fill="none" xmlns="http://www.w3.org/2000/svg">
<path d="M10.8722 0.256454L11 0.25C11.6472 0.25 12.1795 0.741875 12.2435 1.37219L12.25 1.5V9.25H20C20.6472 9.25 21.1795 9.74187 21.2435 10.3722L21.25 10.5C21.25 11.1472 20.7581 11.6795 20.1278 11.7435L20 11.75H12.25V19.5C12.25 20.1472 11.7581 20.6795 11.1278 20.7435L11 20.75C10.3528 20.75 9.82047 20.2581 9.75645 19.6278L9.75 19.5V11.75H2C1.35279 11.75 0.820466 11.2581 0.756454 10.6278L0.75 10.5C0.75 9.85279 1.24187 9.32047 1.87219 9.25645L2 9.25H9.75V1.5C9.75 0.852791 10.2419 0.320466 10.8722 0.256454L11 0.25L10.8722 0.256454Z" fill="black"/>
</svg>
