<svg width="40" height="40" viewBox="0 0 40 40" fill="none" xmlns="http://www.w3.org/2000/svg">
<g id="Icon">
<path id="Oval" fill-rule="evenodd" clip-rule="evenodd" d="M20 40C31.0457 40 40 31.0457 40 20C40 8.9543 31.0457 0 20 0C8.9543 0 0 8.9543 0 20C0 31.0457 8.9543 40 20 40Z" fill="black" fill-opacity="0.04"/>
<path id="Shape" fill-rule="evenodd" clip-rule="evenodd" d="M20.0098 21.2815C22.6752 21.2815 24.5702 22.6897 25.0663 24.7605L25.0979 24.9027C25.1999 25.3964 24.8819 25.8793 24.3876 25.9812C24.3268 25.9937 24.2649 26 24.2029 26H15.7367C15.2242 26 14.8088 25.5851 14.8088 25.0733C14.8088 25.0226 14.813 24.972 14.8213 24.9221L14.8367 24.8477C15.3516 22.7988 17.2837 21.2815 20.0098 21.2815ZM13.3793 21.3815C14.1058 21.3815 14.7696 21.7497 14.7696 21.7497C14.9716 21.8392 15.0661 22.0869 14.9806 22.3028C14.9667 22.338 14.9484 22.3709 14.9264 22.4008L14.8792 22.4551C14.4509 22.9076 14.1524 23.4234 13.9146 24.0383L13.8505 24.2133L13.8179 24.3177C13.7891 24.4251 13.7716 24.5093 13.7602 24.5881L13.7506 24.6657C13.7448 24.7235 13.7414 24.7808 13.7404 24.8378L13.7407 24.9228C13.7471 25.1817 13.5553 25.3986 13.3123 25.4074C13.2925 25.4081 13.2727 25.4073 13.253 25.4052L9.65979 25.4074C9.25363 25.3634 8.96021 24.9767 9.0044 24.5436C9.00878 24.5007 9.01645 24.4582 9.02732 24.4167L9.046 24.3551C9.63103 22.6654 10.9526 21.3815 13.3793 21.3815ZM26.6207 21.3815C28.9607 21.3815 30.2732 22.5754 30.8885 24.1756L30.954 24.3551L30.9727 24.4167C30.9835 24.4582 30.9912 24.5007 30.9956 24.5436C31.0361 24.9406 30.7929 25.2986 30.4393 25.3894L30.3402 25.4074L26.747 25.4052C26.7273 25.4073 26.7075 25.4081 26.6877 25.4074C26.4717 25.3996 26.2961 25.2273 26.2643 25.0073L26.2593 24.9228L26.2596 24.8378L26.2563 24.752L26.2398 24.5881C26.2322 24.5355 26.2219 24.4806 26.2073 24.4181L26.1821 24.3177L26.1495 24.2133L26.0854 24.0383C25.8816 23.5112 25.6332 23.057 25.2966 22.653L25.0736 22.4008C25.0516 22.3709 25.0333 22.338 25.0194 22.3028C24.9446 22.1139 25.0076 21.9007 25.1599 21.7903L25.2304 21.7497C25.2304 21.7497 25.8853 21.3815 26.6207 21.3815ZM13.6118 14.5885C14.3996 14.7812 15.1479 15.4287 15.104 16.9495L15.0978 17.0901C15.0764 17.1238 15.3704 17.2612 15.3704 17.7036C15.3704 17.9985 15.2795 18.1993 15.0978 18.3058C14.7648 19.7877 14.0712 20.5287 13.0168 20.5287C11.9625 20.5287 11.208 19.7877 10.7533 18.3058C10.5825 18.2294 10.497 18.0286 10.497 17.7036C10.497 17.3786 10.5825 17.1741 10.7533 17.0901C10.7715 15.8612 11.0457 15.1597 11.5761 14.9856C11.7866 14.9169 11.9858 14.9169 12.1736 14.9856C12.3636 14.5328 12.843 14.4005 13.6118 14.5885ZM26.3882 14.5885C27.157 14.4005 27.6364 14.5328 27.8264 14.9856C28.0142 14.9169 28.2134 14.9169 28.4239 14.9856C28.9543 15.1597 29.2285 15.8612 29.2467 17.0901C29.4175 17.1741 29.503 17.3786 29.503 17.7036C29.503 18.0286 29.4175 18.2294 29.2467 18.3058C28.792 19.7877 28.0375 20.5287 26.9832 20.5287C25.9288 20.5287 25.2352 19.7877 24.9022 18.3058C24.7205 18.1993 24.6296 17.9985 24.6296 17.7036C24.6296 17.3055 24.8678 17.1543 24.8998 17.1035L24.9022 17.0901L24.896 16.9495C24.8521 15.4287 25.6004 14.7812 26.3882 14.5885ZM23.0058 14.6026C23.6688 15.7671 23.7919 17.1896 23.375 18.87C23.3448 19.0445 23.454 19.1846 23.7026 19.2903L23.776 19.3167C23.8681 19.3462 23.9195 19.4463 23.8906 19.5404C23.8824 19.5671 23.8683 19.5913 23.8495 19.6111L23.818 19.6374C23.4075 19.9054 22.223 19.9252 21.5358 19.7864C21.0816 20.2812 20.5852 20.5287 20.0465 20.5287C19.5078 20.5287 19.0058 20.2812 18.5407 19.7864C17.2393 19.6804 16.5887 18.6851 16.5887 16.8005C16.5887 15.0752 17.2676 13.9412 18.6255 13.3987C18.8596 13.3052 19.1167 13.2894 19.3601 13.3537L19.5402 13.4013C20.8005 12.5991 21.9557 12.9995 23.0058 14.6026Z" fill="black"/>
</g>
</svg>
