<svg width="16" height="16" viewBox="0 0 16 16" fill="none" xmlns="http://www.w3.org/2000/svg">
<path fill-rule="evenodd" clip-rule="evenodd" d="M15.392 0.307969C15.6003 0.516249 15.6235 0.839558 15.4615 1.0734L15.392 1.1565C15.392 1.1565 14.6862 1.86254 14.3333 2.21556C14.2726 2.27629 14.1887 2.36021 14.1082 2.44075C13.9646 2.58438 13.9517 2.81264 14.0746 2.97428C14.1649 3.09297 14.2631 3.22541 14.3267 3.32081C15.0695 4.43446 15.5 5.75735 15.5 7.17644C15.5 11.0606 12.2751 14.2241 8.24757 14.349L8 14.3529C7.64567 14.3529 7.13218 14.4446 6.29054 14.2054C5.44889 13.9662 4.02456 14.2266 3.55066 14.4124L3.36293 14.4932L3.04004 14.6414C1.69715 15.2671 1.173 15.2341 0.775833 14.8303C0.542027 14.5927 0.650458 14.1987 0.88622 13.9629L14.5435 0.307969C14.7778 0.0736544 15.1577 0.0736544 15.392 0.307969ZM8 0C9.07132 0 10.0902 0.214933 11.012 0.602191C11.0377 0.612958 11.0649 0.624889 11.0934 0.63776C11.5767 0.856134 11.6591 1.49618 11.2838 1.87099C11.2188 1.9359 11.1582 1.99648 11.1063 2.04834C8.7267 4.42503 4.12613 9.02005 2.38926 10.7548C2.06007 11.0836 1.50569 10.9711 1.32535 10.5422C0.775118 9.36587 0.5 8.24395 0.5 7.17644C0.5 3.213 3.85786 0 8 0Z" fill="black"/>
</svg>
