<svg width="27" height="24" viewBox="0 0 27 24" fill="none" xmlns="http://www.w3.org/2000/svg">
<path fill-rule="evenodd" clip-rule="evenodd" d="M2.5 6.50002C1.39543 6.50002 0.5 7.39545 0.5 8.50002V15.5C0.5 16.6046 1.39543 17.5 2.5 17.5H8.50069L14.4272 23.4269C15.5611 24.5609 17.5 23.7579 17.5 22.1542V1.84584C17.5 0.24218 15.5611 -0.560901 14.4272 0.573103L8.50069 6.50002H2.5ZM24.5337 12C24.5337 8.92326 23.2806 6.32929 20.7264 4.15259C20.306 3.79437 20.2556 3.16321 20.6139 2.74286C20.9721 2.32251 21.6032 2.27214 22.0236 2.63036C25.0144 5.17907 26.5337 8.32413 26.5337 12C26.5337 15.6782 25.0122 18.8067 22.0174 21.3175C21.5942 21.6723 20.9635 21.6169 20.6087 21.1937C20.2538 20.7704 20.3093 20.1397 20.7325 19.7849C23.2827 17.6468 24.5337 15.0745 24.5337 12Z" fill="white"/>
</svg>
